<svg width="32" height="22" viewBox="0 0 32 22" fill="none" xmlns="http://www.w3.org/2000/svg">
<path d="M2 21.4255H30C30.9625 21.4255 31.75 20.638 31.75 19.6755C31.75 18.713 30.9625 17.9255 30 17.9255H2C1.0375 17.9255 0.25 18.713 0.25 19.6755C0.25 20.638 1.0375 21.4255 2 21.4255ZM2 12.6755H30C30.9625 12.6755 31.75 11.888 31.75 10.9255C31.75 9.96304 30.9625 9.17554 30 9.17554H2C1.0375 9.17554 0.25 9.96304 0.25 10.9255C0.25 11.888 1.0375 12.6755 2 12.6755ZM0.25 2.17554C0.25 3.13804 1.0375 3.92554 2 3.92554H30C30.9625 3.92554 31.75 3.13804 31.75 2.17554C31.75 1.21304 30.9625 0.425537 30 0.425537H2C1.0375 0.425537 0.25 1.21304 0.25 2.17554Z" fill="black"/>
</svg>
